<svg xmlns="http://www.w3.org/2000/svg" viewBox="0 0 64 64" role="img" aria-labelledby="va-title">
  <title id="va-title">VanAssist</title>
  <g fill="none" stroke="#0f6e6e" stroke-width="3" stroke-linecap="round" stroke-linejoin="round">
    <path d="M10 43V25a8 8 0 0 1 8-8h21a10 10 0 0 1 10 10v16H10Z"/>
    <path d="M49 38h5l4 5h-9M18 25h12v9H18M38 25v18"/>
    <circle cx="20" cy="46" r="4" fill="#fff"/><circle cx="42" cy="46" r="4" fill="#fff"/>
    <path d="M50 15a6 6 0 1 1 0 12c-3 0-6-6-6-6s3-6 6-6Z" fill="#fff"/>
    <circle cx="50" cy="21" r="1" fill="#0f6e6e" stroke="none"/>
  </g>
</svg>
