<svg xmlns="http://www.w3.org/2000/svg" viewBox="0 0 64 64" role="img" aria-labelledby="title">
  <title id="title">LocalTorque automotive workshop</title>
  <defs>
    <linearGradient id="lt" x1="8" y1="5" x2="56" y2="59" gradientUnits="userSpaceOnUse">
      <stop stop-color="#17647b"/><stop offset="1" stop-color="#082b39"/>
    </linearGradient>
  </defs>
  <rect x="3" y="3" width="58" height="58" rx="17" fill="url(#lt)"/>
  <path d="M17 39.5h30l-3-10.5a5 5 0 0 0-4.8-3.6H24.8A5 5 0 0 0 20 29l-3 10.5Z" fill="none" stroke="#fff" stroke-width="3" stroke-linejoin="round"/>
  <path d="M14 39.5h36v8H14zM21 34h22" fill="none" stroke="#fff" stroke-width="3" stroke-linejoin="round"/>
  <circle cx="21" cy="47" r="4" fill="#082b39" stroke="#fff" stroke-width="2.5"/>
  <circle cx="43" cy="47" r="4" fill="#082b39" stroke="#fff" stroke-width="2.5"/>
  <path d="m42 14 3 3-8 8-4-4 8-8 1 1Zm-9 7-9 9" fill="none" stroke="#f28a4b" stroke-width="3.2" stroke-linecap="round" stroke-linejoin="round"/>
  <circle cx="23" cy="31" r="2.5" fill="#f28a4b"/>
</svg>
